<svg aria-hidden="true" style="position: absolute; width: 0; height: 0; overflow: hidden;" version="1.1" xmlns="http://www.w3.org/2000/svg" xmlns:xlink="http://www.w3.org/1999/xlink">
<defs>
<symbol id="logo-icon" viewBox="0 0 123 32">
<path d="M32.009 30.933h-4.879v-17.792l-8.585 16.896c-0.211 0.43-0.509 0.757-0.894 0.979-0.372 0.222-0.776 0.333-1.21 0.333-0.422 0-0.819-0.111-1.192-0.333-0.36-0.222-0.646-0.549-0.857-0.979l-8.622-16.896v17.792h-4.842v-27.562c0-0.625 0.161-1.181 0.484-1.667 0.335-0.486 0.77-0.813 1.304-0.979 0.261-0.069 0.521-0.090 0.782-0.063 0.261 0.014 0.509 0.076 0.745 0.188 0.248 0.097 0.472 0.243 0.67 0.438 0.199 0.181 0.366 0.403 0.503 0.667l11.025 21.438 11.025-21.438c0.286-0.528 0.677-0.903 1.173-1.125 0.509-0.222 1.037-0.257 1.583-0.104 0.521 0.167 0.95 0.493 1.285 0.979s0.503 1.042 0.503 1.667v27.562z"></path>
<path d="M58.621 15.87c0 0.75-0.118 1.563-0.354 2.438-0.236 0.861-0.621 1.667-1.155 2.417-0.521 0.736-1.21 1.354-2.067 1.854-0.844 0.5-1.875 0.75-3.091 0.75h-8.734v-5.146h8.734c0.658 0 1.167-0.222 1.527-0.667 0.36-0.458 0.54-1.021 0.54-1.688 0-0.708-0.205-1.264-0.614-1.667-0.397-0.403-0.882-0.604-1.453-0.604h-8.734c-0.658 0-1.167 0.229-1.527 0.687-0.36 0.444-0.54 1-0.54 1.667v7.563c0 0.722 0.199 1.285 0.596 1.687 0.41 0.403 0.913 0.604 1.508 0.604h8.697v5.167h-8.734c-0.67 0-1.397-0.132-2.179-0.396-0.77-0.264-1.49-0.688-2.16-1.271-0.658-0.597-1.211-1.368-1.657-2.312-0.447-0.958-0.67-2.118-0.67-3.479v-7.604c0-0.75 0.118-1.556 0.354-2.417 0.236-0.875 0.615-1.681 1.136-2.417 0.534-0.75 1.223-1.375 2.067-1.875 0.857-0.5 1.893-0.75 3.11-0.75h8.734c0.67 0 1.39 0.132 2.16 0.396 0.782 0.264 1.502 0.694 2.16 1.292 0.67 0.583 1.229 1.354 1.676 2.313 0.447 0.944 0.67 2.097 0.67 3.458z"></path>
<path d="M80.186 13.829h-8.455v17.104h-4.898v-17.104h-6.294v-5.417h6.294v-7.354h4.898v7.354h8.455v5.417z"></path>
<path d="M102.999 23.475c0 0.75-0.118 1.562-0.354 2.437-0.236 0.861-0.621 1.667-1.155 2.417-0.52 0.736-1.21 1.354-2.067 1.854-0.844 0.5-1.875 0.75-3.091 0.75h-8.734c-0.67 0-1.397-0.132-2.179-0.396-0.77-0.264-1.49-0.688-2.16-1.271-0.658-0.597-1.21-1.368-1.657-2.312-0.447-0.958-0.67-2.118-0.67-3.479 0-0.75 0.118-1.563 0.354-2.438s0.615-1.68 1.136-2.417c0.534-0.75 1.223-1.375 2.067-1.875 0.857-0.5 1.893-0.75 3.11-0.75h8.734v5.167h-8.734c-0.658 0-1.167 0.229-1.527 0.688-0.36 0.445-0.54 1-0.54 1.667 0 0.708 0.205 1.264 0.615 1.667 0.422 0.389 0.919 0.583 1.49 0.583h8.697c0.658 0 1.167-0.222 1.528-0.667s0.54-1 0.54-1.667v-7.563c0-0.708-0.198-1.271-0.596-1.688-0.384-0.417-0.875-0.625-1.471-0.625h-10.633v-5.146h10.633c0.67 0 1.391 0.132 2.161 0.396 0.782 0.264 1.502 0.694 2.159 1.292 0.671 0.583 1.23 1.354 1.676 2.313 0.448 0.944 0.671 2.097 0.671 3.458v7.604z"></path>
<path d="M113.847 3.65c0 0.371-0.041 0.702-0.123 0.994s-0.194 0.55-0.335 0.775c-0.138 0.221-0.299 0.41-0.481 0.569s-0.374 0.29-0.576 0.394c-0.197 0.1-0.397 0.173-0.602 0.219-0.201 0.046-0.391 0.069-0.57 0.069l3.034 2.931h-2.247l-3.028-2.931h-1.044v-1.625h3.285c0.182-0.017 0.348-0.058 0.497-0.125 0.153-0.071 0.283-0.165 0.391-0.281 0.112-0.117 0.198-0.256 0.257-0.419 0.060-0.167 0.089-0.356 0.089-0.569v-1.025c0-0.092-0.011-0.16-0.033-0.206-0.019-0.050-0.045-0.085-0.078-0.106-0.030-0.025-0.064-0.040-0.101-0.044-0.034-0.004-0.065-0.006-0.095-0.006h-4.794v7.338h-1.452v-8.144c0-0.113 0.018-0.219 0.055-0.319s0.088-0.188 0.152-0.262c0.067-0.075 0.145-0.133 0.234-0.175 0.090-0.042 0.186-0.063 0.29-0.063h5.515c0.325 0 0.598 0.067 0.821 0.2 0.223 0.129 0.405 0.294 0.542 0.494 0.142 0.196 0.242 0.408 0.302 0.637 0.063 0.229 0.095 0.444 0.095 0.644v1.038z"></path>
<path d="M122.662 9.6h-6.625c-0.104 0-0.202-0.021-0.29-0.063-0.090-0.042-0.168-0.098-0.236-0.169-0.063-0.075-0.113-0.162-0.15-0.262s-0.056-0.208-0.056-0.325v-8.144h1.453v7.338h5.904v1.625z"></path>
</symbol>
<symbol id="icon-twittericon" viewBox="0 0 32 32">
<path d="M32 6.078c-1.19 0.522-2.458 0.868-3.78 1.036 1.36-0.812 2.398-2.088 2.886-3.626-1.268 0.756-2.668 1.29-4.16 1.588-1.204-1.282-2.92-2.076-4.792-2.076-3.632 0-6.556 2.948-6.556 6.562 0 0.52 0.044 1.020 0.152 1.496-5.454-0.266-10.28-2.88-13.522-6.862-0.566 0.982-0.898 2.106-0.898 3.316 0 2.272 1.17 4.286 2.914 5.452-1.054-0.020-2.088-0.326-2.964-0.808 0 0.020 0 0.046 0 0.072 0 3.188 2.274 5.836 5.256 6.446-0.534 0.146-1.116 0.216-1.72 0.216-0.42 0-0.844-0.024-1.242-0.112 0.85 2.598 3.262 4.508 6.13 4.57-2.232 1.746-5.066 2.798-8.134 2.798-0.538 0-1.054-0.024-1.57-0.090 2.906 1.874 6.35 2.944 10.064 2.944 12.072 0 18.672-10 18.672-18.668 0-0.29-0.010-0.57-0.024-0.848 1.302-0.924 2.396-2.078 3.288-3.406z"></path>
</symbol>
<symbol id="icon-telegram" viewBox="0 0 32 32">
<path d="M16 0c-8.838 0-16 7.162-16 16s7.162 16 16 16 16-7.163 16-16-7.163-16-16-16zM23.863 10.969l-2.625 12.369c-0.181 0.881-0.712 1.087-1.45 0.681l-4-2.956-1.919 1.869c-0.225 0.219-0.4 0.4-0.8 0.4-0.519 0-0.431-0.194-0.606-0.688l-1.363-4.475-3.956-1.231c-0.856-0.262-0.862-0.85 0.194-1.269l15.412-5.95c0.7-0.319 1.381 0.169 1.113 1.25z"></path>
</symbol>
<symbol id="icon-youtube" viewBox="0 0 32 32">
<path d="M31.681 9.6c0 0-0.313-2.206-1.275-3.175-1.219-1.275-2.581-1.281-3.206-1.356-4.475-0.325-11.194-0.325-11.194-0.325h-0.012c0 0-6.719 0-11.194 0.325-0.625 0.075-1.987 0.081-3.206 1.356-0.963 0.969-1.269 3.175-1.269 3.175s-0.319 2.588-0.319 5.181v2.425c0 2.587 0.319 5.181 0.319 5.181s0.313 2.206 1.269 3.175c1.219 1.275 2.819 1.231 3.531 1.369 2.563 0.244 10.881 0.319 10.881 0.319s6.725-0.012 11.2-0.331c0.625-0.075 1.988-0.081 3.206-1.356 0.962-0.969 1.275-3.175 1.275-3.175s0.319-2.587 0.319-5.181v-2.425c-0.006-2.588-0.325-5.181-0.325-5.181zM12.694 20.15v-8.994l8.644 4.513-8.644 4.481z"></path>
</symbol>
<symbol id="icon-linkedin" viewBox="0 0 32 32">
<path d="M29 0h-26c-1.65 0-3 1.35-3 3v26c0 1.65 1.35 3 3 3h26c1.65 0 3-1.35 3-3v-26c0-1.65-1.35-3-3-3zM12 26h-4v-14h4v14zM10 10c-1.106 0-2-0.894-2-2s0.894-2 2-2c1.106 0 2 0.894 2 2s-0.894 2-2 2zM26 26h-4v-8c0-1.106-0.894-2-2-2s-2 0.894-2 2v8h-4v-14h4v2.481c0.825-1.131 2.087-2.481 3.5-2.481 2.488 0 4.5 2.238 4.5 5v9z"></path>
</symbol>
<symbol id="icon-menuicon" viewBox="0 0 36 32">
<path d="M6.554 24h24.013v-2.667h-24.013v2.667zM6.554 17.333h24.013v-2.667h-24.013v2.667zM6.554 8v2.667h24.013v-2.667h-24.013z"></path>
</symbol>
</defs>
</svg>
